C:/Program Files/Krita (x64)/bin/ffmpeg.exe -hide_banner -y -y -r 24 -start_number 0 -start_number_range 1 -i C:/Users/Jetsan/Art/ARTIS409/d20rollRotoscope/frame%04d.png -i C:/Users/Jetsan/Art/ARTIS409/d20rollRotoscope/KritaTempPalettegen_%06d.png -lavfi [0:v][1:v]paletteuse=dither=sierra2_4a:diff_mode=none -f gif -loop 0 -gifflags +transdiff C:/Users/Jetsan/Art/ARTIS409/d20rollRotoscope/d20rollRotoscope.gif
=====================================================
Input #0, image2, from 'C:/Users/Jetsan/Art/ARTIS409/d20rollRotoscope/frame%04d.png':
  Duration: 00:00:02.68, start: 0.000000, bitrate: N/A
  Stream #0:0: Video: png, rgba(pc), 480x720 [SAR 11811:11811 DAR 2:3], 25 fps, 25 tbr, 25 tbn, 25 tbc
Input #1, image2, from 'C:/Users/Jetsan/Art/ARTIS409/d20rollRotoscope/KritaTempPalettegen_%06d.png':
  Duration: 00:00:00.04, start: 0.000000, bitrate: N/A
  Stream #1:0: Video: png, rgba(pc), 16x16 [SAR 1:1 DAR 1:1], 25 fps, 25 tbr, 25 tbn, 25 tbc
Stream mapping:
  Stream #0:0 (png) -> paletteuse:default
  Stream #1:0 (png) -> paletteuse:palette
  paletteuse -> Stream #0:0 (gif)
Press [q] to stop, [?] for help
[image2 @ 000002734a62c900] Thread message queue blocking; consider raising the thread_queue_size option (current value: 8)
Output #0, gif, to 'C:/Users/Jetsan/Art/ARTIS409/d20rollRotoscope/d20rollRotoscope.gif':
  Metadata:
    encoder         : Lavf58.76.100
  Stream #0:0: Video: gif, pal8(pc, gbr/unknown/unknown, progressive), 480x720 [SAR 1:1 DAR 2:3], q=2-31, 200 kb/s, 24 fps, 100 tbn (default)
    Metadata:
      encoder         : Lavc58.134.100 gif
frame=    1 fps=0.0 q=-0.0 size=       0kB time=00:00:00.01 bitrate=   0.0kbits/s speed=0.515x    frame=   35 fps=0.0 q=-0.0 size=     196kB time=00:00:01.43 bitrate=1124.1kbits/s speed=2.73x    frame=   67 fps= 66 q=-0.0 Lsize=     304kB time=00:00:02.76 bitrate= 903.2kbits/s speed=2.71x    
video:304kB audio:0kB subtitle:0kB other streams:0kB global headers:0kB muxing overhead: 0.006419%
